<svg xmlns="http://www.w3.org/2000/svg" width="212" height="39" viewBox="0 0 212 39" fill="none"><g clip-path="url(#clip0_16:6848)"><path d="M68.28 30.2324V16.5124C68.28 13.1524 66.32 10.4324 61.84 10.4324C58.44 10.4324 56.32 11.8324 55.2 13.1124V10.9124H48V30.2324H55.2V18.3124C55.8 17.6324 56.64 16.7924 58.28 16.7924C60 16.7924 61.08 17.5524 61.08 19.5524V30.2324H68.28ZM80.4169 38.0724C85.2169 38.0724 92.0969 36.5124 92.0969 28.1524V10.9124H84.8969V12.9524C83.3369 11.1124 81.4569 10.4324 79.4569 10.4324C74.6969 10.4324 70.9769 13.6324 70.9769 20.0724C70.9769 26.6724 74.8169 29.7124 79.4569 29.7124C81.4569 29.7124 83.2569 28.9924 84.8969 27.1124V28.1524C84.8969 31.5524 82.0969 32.1924 80.4169 32.1924C78.3369 32.1924 76.1369 31.5524 74.6569 30.0724L71.6169 35.1924C74.1369 37.1924 77.0969 38.0724 80.4169 38.0724ZM81.9369 23.3524C79.9769 23.3524 78.3369 22.4324 78.3369 20.0724C78.3369 17.7124 79.9769 16.7924 81.9369 16.7924C82.8569 16.7924 84.2169 17.2324 84.8969 18.0324V22.1124C84.2169 22.9124 82.8569 23.3524 81.9369 23.3524ZM114.446 30.2324V18.5524C114.446 12.1124 109.766 10.4324 104.966 10.4324C102.046 10.4324 98.4459 11.2724 95.8459 13.3524L98.2859 17.7924C99.8059 16.6324 101.846 15.9124 103.646 15.9124C106.006 15.9124 107.246 16.9524 107.246 18.3124V20.3124C106.206 18.9924 103.926 18.1924 101.406 18.1924C98.5259 18.1924 94.7659 19.5524 94.7659 24.3524C94.7659 28.7524 98.5259 30.7124 101.406 30.7124C103.806 30.7124 106.166 29.7524 107.246 28.3924V30.2324H114.446ZM104.406 26.0324C103.206 26.0324 101.886 25.6724 101.886 24.4724C101.886 23.2724 103.206 22.8724 104.406 22.8724C105.526 22.8724 106.766 23.2324 107.246 23.9124V24.9924C106.766 25.6724 105.526 26.0324 104.406 26.0324ZM126.55 38.0724C131.35 38.0724 138.23 36.5124 138.23 28.1524V10.9124H131.03V12.9524C129.47 11.1124 127.59 10.4324 125.59 10.4324C120.83 10.4324 117.11 13.6324 117.11 20.0724C117.11 26.6724 120.95 29.7124 125.59 29.7124C127.59 29.7124 129.39 28.9924 131.03 27.1124V28.1524C131.03 31.5524 128.23 32.1924 126.55 32.1924C124.47 32.1924 122.27 31.5524 120.79 30.0724L117.75 35.1924C120.27 37.1924 123.23 38.0724 126.55 38.0724ZM128.07 23.3524C126.11 23.3524 124.47 22.4324 124.47 20.0724C124.47 17.7124 126.11 16.7924 128.07 16.7924C128.99 16.7924 130.35 17.2324 131.03 18.0324V22.1124C130.35 22.9124 128.99 23.3524 128.07 23.3524ZM151.659 30.7124C154.539 30.7124 157.979 29.9524 159.899 28.3124L156.939 23.8724C155.979 24.7124 153.579 25.2324 152.499 25.2324C150.139 25.2324 148.739 24.0324 148.339 22.7924H161.459V21.3124C161.459 14.5124 157.099 10.4324 151.419 10.4324C145.179 10.4324 140.899 14.9524 140.899 20.5524C140.899 26.9124 145.619 30.7124 151.659 30.7124ZM154.619 18.2324H148.259C148.499 17.3524 149.219 15.9124 151.419 15.9124C153.739 15.9124 154.419 17.3924 154.619 18.2324Z" fill="black"></path><path d="M26.356 0.83252C28.5461 0.83252 29.9981 3.10326 29.0792 5.09127L20 24.7329L13.5742 21.6785L22.4867 2.56471C22.9794 1.50803 24.0398 0.83252 25.2057 0.83252H26.356Z" fill="#00F4E5"></path><path d="M1.41755 19.3267C0.643211 20.8401 1.27983 22.6939 2.82058 23.4122L17.4288 30.223L20.394 23.8604L5.77342 17.1274C4.31232 16.4545 2.58054 17.0538 1.84783 18.4858L1.41755 19.3267Z" fill="#00F4E5"></path><path d="M175.072 25.9053C175.072 28.4801 176.807 30.447 179.382 30.447C180.955 30.447 181.885 29.8033 182.547 28.945L181.652 28.1225C181.08 28.8914 180.347 29.249 179.453 29.249C177.611 29.249 176.467 27.8185 176.467 25.9053C176.467 23.992 177.611 22.5794 179.453 22.5794C180.347 22.5794 181.08 22.9192 181.652 23.7059L182.547 22.8834C181.885 22.0251 180.955 21.3814 179.382 21.3814C176.807 21.3814 175.072 23.3483 175.072 25.9053ZM188.199 30.447C190.827 30.447 192.472 28.4086 192.472 25.9053C192.472 23.402 190.827 21.3814 188.199 21.3814C185.57 21.3814 183.925 23.402 183.925 25.9053C183.925 28.4086 185.57 30.447 188.199 30.447ZM188.199 29.249C186.357 29.249 185.32 27.6755 185.32 25.9053C185.32 24.153 186.357 22.5794 188.199 22.5794C190.041 22.5794 191.06 24.153 191.06 25.9053C191.06 27.6755 190.041 29.249 188.199 29.249ZM206.424 30.2324V23.992C206.424 22.2576 205.584 21.3814 204.01 21.3814C202.759 21.3814 201.596 22.2039 201.114 22.9907C200.863 22.0967 200.112 21.3814 198.789 21.3814C197.52 21.3814 196.357 22.2933 196 22.8477V21.596H194.659V30.2324H196V23.9205C196.465 23.2232 197.394 22.5794 198.271 22.5794C199.397 22.5794 199.862 23.2768 199.862 24.3675V30.2324H201.203V23.9026C201.65 23.2232 202.598 22.5794 203.492 22.5794C204.6 22.5794 205.083 23.2768 205.083 24.3675V30.2324H206.424Z" fill="black"></path><path d="M167.48 30.2318C166.998 30.2384 166.52 30.1436 166.079 29.954C165.663 29.7731 165.288 29.5138 164.978 29.1914C164.664 28.8678 164.418 28.4886 164.254 28.0748C164.084 27.6471 163.998 27.1928 164 26.7348C163.996 26.2708 164.084 25.8104 164.26 25.3784C164.431 24.975 164.678 24.6057 164.989 24.289C165.301 23.9666 165.675 23.7058 166.09 23.521C166.528 23.3308 167.003 23.2324 167.483 23.2324C167.963 23.2324 168.438 23.3308 168.876 23.521C169.302 23.7018 169.686 23.9629 170.006 24.289C170.316 24.6057 170.563 24.975 170.734 25.3784C170.912 25.8101 171.002 26.2705 171 26.7348C171 27.1931 170.912 27.6474 170.74 28.0748C170.576 28.4886 170.331 28.8678 170.017 29.1914C169.707 29.5146 169.332 29.774 168.915 29.954C168.464 30.1463 167.974 30.2411 167.48 30.2318Z" fill="black"></path><path fill-rule="evenodd" clip-rule="evenodd" d="M30.7247 9.70605L33.9978 2.70605H41C42.6569 2.70605 44 4.0492 44 5.70605V6.70605C44 8.36291 42.6569 9.70605 41 9.70605H30.7247ZM25.9242 19.9727L29.1972 12.9727H41C42.6569 12.9727 44 14.3159 44 15.9727V16.9727C44 18.6296 42.6569 19.9727 41 19.9727H25.9242ZM21.1237 30.2394L24.3967 23.2394H41C42.6569 23.2394 44 24.5825 44 26.2394V27.2394C44 28.8962 42.6569 30.2394 41 30.2394H21.1237Z" fill="black"></path></g><defs><clipPath id="clip0_16:6848"><rect width="211.484" height="38" fill="black" transform="translate(0 0.232422)"></rect></clipPath></defs></svg>